<?xml version="1.0" encoding="UTF-8"?>
<!DOCTYPE svg PUBLIC "-//W3C//DTD SVG 1.1//EN" "http://www.w3.org/Graphics/SVG/1.1/DTD/svg11.dtd">
<svg xmlns="http://www.w3.org/2000/svg" style="background: #ffffff; background-color: light-dark(#ffffff, var(--ge-dark-color, #121212)); color-scheme: light dark;" xmlns:xlink="http://www.w3.org/1999/xlink" version="1.1" width="178px" height="214px" viewBox="0 0 178 214"><defs/><rect fill="#ffffff" width="100%" height="100%" x="0" y="0" style="fill: light-dark(#ffffff, var(--ge-dark-color, #121212));"/><g><g data-cell-id="0"><g data-cell-id="1"><g data-cell-id="Yy7TvWQQmBnyVUropJRo-2"><g><rect x="-1.71" y="24.37" width="101.46" height="20" rx="3" ry="3" fill="#000000" stroke="#000000" transform="rotate(-30,49.02,34.37)" pointer-events="all" style="fill: rgb(0, 0, 0); stroke: light-dark(rgb(0, 0, 0), rgb(255, 255, 255));"/></g></g><g data-cell-id="Yy7TvWQQmBnyVUropJRo-3"><g><rect x="79.39" y="23.67" width="98.66" height="20" rx="3" ry="3" fill="#000000" stroke="#000000" transform="rotate(-150,128.72,33.67)" pointer-events="all" style="fill: rgb(0, 0, 0); stroke: light-dark(rgb(0, 0, 0), rgb(255, 255, 255));"/></g></g><g data-cell-id="Yy7TvWQQmBnyVUropJRo-5"><g><path d="M 64 47 Q 114 47 114 82 Q 114 117 64 117 Z" fill="#f0a30a" stroke="none" transform="rotate(-90,89,82)" pointer-events="all" style="fill: rgb(240, 163, 10);"/></g></g><g data-cell-id="Yy7TvWQQmBnyVUropJRo-6"><g><path d="M 59 97 Q 119 97 119 132 Q 119 167 59 167 Z" fill="#f0a30a" stroke="none" transform="rotate(90,89,132)" pointer-events="all" style="fill: rgb(240, 163, 10);"/></g></g><g data-cell-id="Yy7TvWQQmBnyVUropJRo-8"><g><rect x="83.01" y="100.34" width="45.32" height="11.34" rx="1.7" ry="1.7" fill="#000000" stroke="#000000" transform="rotate(-90,105.67,106.01)" pointer-events="all" style="fill: rgb(0, 0, 0); stroke: light-dark(rgb(0, 0, 0), rgb(255, 255, 255));"/></g></g><g data-cell-id="Yy7TvWQQmBnyVUropJRo-9"><g><rect x="50" y="100.34" width="45.32" height="11.34" rx="1.7" ry="1.7" fill="#000000" stroke="#000000" transform="rotate(-90,72.66,106.01)" pointer-events="all" style="fill: rgb(0, 0, 0); stroke: light-dark(rgb(0, 0, 0), rgb(255, 255, 255));"/></g></g><g data-cell-id="Yy7TvWQQmBnyVUropJRo-10"><g><rect x="56.09" y="102.26" width="65.83" height="11.34" rx="1.7" ry="1.7" fill="#000000" stroke="#000000" transform="rotate(-90,89,107.93)" pointer-events="all" style="fill: rgb(0, 0, 0); stroke: light-dark(rgb(0, 0, 0), rgb(255, 255, 255));"/></g></g><g data-cell-id="Yy7TvWQQmBnyVUropJRo-11"><g><rect x="55.09" y="169.68" width="65.83" height="20" rx="3" ry="3" fill="#f0a30a" stroke="none" transform="rotate(-90,88,179.68)" pointer-events="all" style="fill: rgb(240, 163, 10);"/></g></g><g data-cell-id="Yy7TvWQQmBnyVUropJRo-12"><g><rect x="47" y="192.68" width="80" height="20" rx="3" ry="3" fill="#f0a30a" stroke="none" pointer-events="all" style="fill: rgb(240, 163, 10);"/></g></g></g></g></g></svg>